<mxfile host="Electron" agent="Mozilla/5.0 (Windows NT 10.0; Win64; x64) AppleWebKit/537.36 (KHTML, like Gecko) draw.io/24.7.5 Chrome/126.0.6478.183 Electron/31.3.0 Safari/537.36" version="24.7.5">
  <diagram name="Page-1" id="pSy3GDJuXYtXijRwcEwa">
    <mxGraphModel dx="989" dy="610" grid="1" gridSize="10" guides="1" tooltips="1" connect="1" arrows="1" fold="1" page="1" pageScale="1" pageWidth="827" pageHeight="1169" math="0" shadow="0">
      <root>
        <mxCell id="0" />
        <mxCell id="1" parent="0" />
        <mxCell id="FwiEydcGMllqHmk7ZNrM-1" value="API" style="shape=umlLifeline;perimeter=lifelinePerimeter;whiteSpace=wrap;html=1;container=1;dropTarget=0;collapsible=0;recursiveResize=0;outlineConnect=0;portConstraint=eastwest;newEdgeStyle={&quot;edgeStyle&quot;:&quot;elbowEdgeStyle&quot;,&quot;elbow&quot;:&quot;vertical&quot;,&quot;curved&quot;:0,&quot;rounded&quot;:0};" vertex="1" parent="1">
          <mxGeometry x="364" y="240" width="100" height="290" as="geometry" />
        </mxCell>
        <mxCell id="FwiEydcGMllqHmk7ZNrM-13" value="" style="html=1;points=[[0,0,0,0,5],[0,1,0,0,-5],[1,0,0,0,5],[1,1,0,0,-5]];perimeter=orthogonalPerimeter;outlineConnect=0;targetShapes=umlLifeline;portConstraint=eastwest;newEdgeStyle={&quot;curved&quot;:0,&quot;rounded&quot;:0};" vertex="1" parent="FwiEydcGMllqHmk7ZNrM-1">
          <mxGeometry x="45" y="90" width="10" height="190" as="geometry" />
        </mxCell>
        <mxCell id="FwiEydcGMllqHmk7ZNrM-2" value="Database" style="shape=umlLifeline;perimeter=lifelinePerimeter;whiteSpace=wrap;html=1;container=1;dropTarget=0;collapsible=0;recursiveResize=0;outlineConnect=0;portConstraint=eastwest;newEdgeStyle={&quot;edgeStyle&quot;:&quot;elbowEdgeStyle&quot;,&quot;elbow&quot;:&quot;vertical&quot;,&quot;curved&quot;:0,&quot;rounded&quot;:0};" vertex="1" parent="1">
          <mxGeometry x="640" y="240" width="100" height="280" as="geometry" />
        </mxCell>
        <mxCell id="FwiEydcGMllqHmk7ZNrM-16" value="" style="html=1;points=[[0,0,0,0,5],[0,1,0,0,-5],[1,0,0,0,5],[1,1,0,0,-5]];perimeter=orthogonalPerimeter;outlineConnect=0;targetShapes=umlLifeline;portConstraint=eastwest;newEdgeStyle={&quot;curved&quot;:0,&quot;rounded&quot;:0};" vertex="1" parent="FwiEydcGMllqHmk7ZNrM-2">
          <mxGeometry x="45" y="120" width="10" height="150" as="geometry" />
        </mxCell>
        <mxCell id="FwiEydcGMllqHmk7ZNrM-3" value="" style="shape=umlLifeline;perimeter=lifelinePerimeter;whiteSpace=wrap;html=1;container=1;dropTarget=0;collapsible=0;recursiveResize=0;outlineConnect=0;portConstraint=eastwest;newEdgeStyle={&quot;curved&quot;:0,&quot;rounded&quot;:0};participant=umlActor;" vertex="1" parent="1">
          <mxGeometry x="170" y="240" width="20" height="300" as="geometry" />
        </mxCell>
        <mxCell id="FwiEydcGMllqHmk7ZNrM-4" value="User" style="text;html=1;align=center;verticalAlign=middle;whiteSpace=wrap;rounded=0;" vertex="1" parent="1">
          <mxGeometry x="100" y="246" width="60" height="30" as="geometry" />
        </mxCell>
        <mxCell id="FwiEydcGMllqHmk7ZNrM-5" value="1: Sign Up (username,password)" style="html=1;verticalAlign=bottom;endArrow=block;curved=0;rounded=0;fontStyle=1" edge="1" parent="1">
          <mxGeometry width="80" relative="1" as="geometry">
            <mxPoint x="179.81034482758605" y="331" as="sourcePoint" />
            <mxPoint x="409" y="331" as="targetPoint" />
          </mxGeometry>
        </mxCell>
        <mxCell id="FwiEydcGMllqHmk7ZNrM-6" value="2: Save User" style="html=1;verticalAlign=bottom;endArrow=block;curved=0;rounded=0;fontStyle=1" edge="1" parent="1">
          <mxGeometry width="80" relative="1" as="geometry">
            <mxPoint x="419" y="360" as="sourcePoint" />
            <mxPoint x="684.9999999999999" y="360" as="targetPoint" />
          </mxGeometry>
        </mxCell>
        <mxCell id="FwiEydcGMllqHmk7ZNrM-9" value="" style="html=1;verticalAlign=bottom;labelBackgroundColor=none;endArrow=block;endFill=1;dashed=1;rounded=0;" edge="1" parent="1">
          <mxGeometry width="160" relative="1" as="geometry">
            <mxPoint x="684.9" y="510" as="sourcePoint" />
            <mxPoint x="420" y="510" as="targetPoint" />
          </mxGeometry>
        </mxCell>
        <mxCell id="FwiEydcGMllqHmk7ZNrM-11" value="3: User saved" style="text;html=1;align=center;verticalAlign=middle;whiteSpace=wrap;rounded=0;fontSize=11;fontStyle=1" vertex="1" parent="1">
          <mxGeometry x="510" y="480" width="90" height="30" as="geometry" />
        </mxCell>
        <mxCell id="FwiEydcGMllqHmk7ZNrM-12" value="4: Display a confirmation message" style="html=1;verticalAlign=bottom;endArrow=block;curved=0;rounded=0;fontStyle=1" edge="1" parent="1" target="FwiEydcGMllqHmk7ZNrM-3">
          <mxGeometry width="80" relative="1" as="geometry">
            <mxPoint x="413.9" y="520" as="sourcePoint" />
            <mxPoint x="185.00000000000003" y="520" as="targetPoint" />
          </mxGeometry>
        </mxCell>
      </root>
    </mxGraphModel>
  </diagram>
</mxfile>
